<svg data-v-fde0c5aa="" xmlns="http://www.w3.org/2000/svg" viewBox="0 0 300 300" class="iconLeft"><!----><defs data-v-fde0c5aa=""><!----></defs><rect data-v-fde0c5aa="" fill="#EBF2F2" x="0" y="0" width="300px" height="300px" class="logo-background-square"></rect><defs data-v-fde0c5aa=""><!----></defs><g data-v-fde0c5aa="" id="4593284b-c1ae-444f-8125-a396f9f6e3ef" fill="#0F2020" transform="matrix(1.3389908583834675,0,0,1.3389908583834675,83.07912240502283,130.5712429768658)"><path d="M2.53 19.19L2.53 19.19Q2.02 19.19 1.78 18.94L1.78 18.94L1.78 18.94Q1.54 18.69 1.54 18.12L1.54 18.12L1.54 18.12Q1.54 17.32 1.75 15.69L1.75 15.69L1.75 15.69Q1.96 14.06 2.59 10.11L2.59 10.11L2.16 9.25L2.16 9.25Q2.60 8.96 3.03 8.81L3.03 8.81L3.03 8.81Q3.46 8.67 3.79 8.67L3.79 8.67L3.79 8.67Q4.62 8.67 5.04 9.18L5.04 9.18L5.04 9.18Q5.46 9.70 5.80 11.03L5.80 11.03L5.80 11.03Q6.15 12.36 6.86 15.93L6.86 15.93L6.99 16.55L7.14 16.55L7.14 16.55Q7.62 14.62 8.59 12.78L8.59 12.78L8.59 12.78Q9.56 10.95 10.76 9.81L10.76 9.81L10.76 9.81Q11.96 8.67 13.08 8.67L13.08 8.67L13.08 8.67Q13.62 8.67 13.62 9.37L13.62 9.37L13.62 9.37Q13.62 9.53 13.46 10.57L13.46 10.57L13.46 10.57Q13.30 11.61 13.23 12.04L13.23 12.04L13.23 12.04Q12.85 14.41 12.66 15.79L12.66 15.79L12.66 15.79Q12.46 17.16 12.46 17.68L12.46 17.68L12.46 17.68Q12.46 18.41 12.80 18.86L12.80 18.86L12.80 18.86Q12.24 19.22 11.72 19.22L11.72 19.22L11.72 19.22Q11.21 19.22 10.98 18.96L10.98 18.96L10.98 18.96Q10.75 18.70 10.75 18.13L10.75 18.13L10.75 18.13Q10.75 17.30 10.95 15.72L10.95 15.72L10.95 15.72Q11.14 14.13 11.70 10.75L11.70 10.75L11.62 10.75L11.62 10.75Q10.70 11.55 9.96 12.87L9.96 12.87L9.96 12.87Q9.23 14.18 8.76 15.53L8.76 15.53L8.76 15.53Q8.30 16.87 8.16 17.78L8.16 17.78L8.16 17.78Q7.91 18.00 7.60 18.13L7.60 18.13L7.60 18.13Q7.29 18.26 7 18.26L7 18.26L7 18.26Q6.38 18.26 6.07 17.82L6.07 17.82L6.07 17.82Q5.75 17.39 5.43 16.08L5.43 16.08L5.43 16.08Q5.11 14.77 4.35 11.03L4.35 11.03L4.30 10.75L4.21 10.75L4.07 11.69L4.07 11.69Q3.67 14.25 3.46 15.67L3.46 15.67L3.46 15.67Q3.26 17.09 3.26 17.65L3.26 17.65L3.26 17.65Q3.26 18.44 3.60 18.83L3.60 18.83L3.60 18.83Q3.07 19.19 2.53 19.19L2.53 19.19ZM22.67 10.43L22.67 10.43Q23.38 10.43 23.38 11.27L23.38 11.27L23.38 11.27Q23.38 13.54 22.37 15.96L22.37 15.96L22.37 15.96Q21.36 18.38 19.54 20.01L19.54 20.01L19.54 20.01Q17.71 21.63 15.37 21.63L15.37 21.63L15.37 21.63Q14.49 21.63 14.06 21.32L14.06 21.32L14.06 21.32Q13.62 21.01 13.62 20.48L13.62 20.48L13.62 20.48Q13.62 20.29 13.71 20.07L13.71 20.07L13.71 20.07Q13.79 19.85 13.90 19.68L13.90 19.68L13.90 19.68Q14.20 20.02 14.59 20.23L14.59 20.23L14.59 20.23Q14.98 20.44 15.69 20.44L15.69 20.44L15.69 20.44Q16.32 20.44 17.13 20.13L17.13 20.13L17.13 20.13Q17.93 19.81 18.70 19.17L18.70 19.17L18.70 19.17Q17.68 19.08 17.19 18.44L17.19 18.44L17.19 18.44Q16.69 17.79 16.56 16.92L16.56 16.92L16.56 16.92Q16.44 16.04 16.39 14.60L16.39 14.60L16.39 14.60Q16.37 13.54 16.31 12.91L16.31 12.91L16.31 12.91Q16.25 12.28 16.07 11.70L16.07 11.70L16.07 11.70Q15.89 11.13 15.50 10.78L15.50 10.78L15.50 10.78Q15.95 10.43 16.46 10.43L16.46 10.43L16.46 10.43Q17.21 10.43 17.55 10.96L17.55 10.96L17.55 10.96Q17.89 11.48 17.97 12.24L17.97 12.24L17.97 12.24Q18.05 13.01 18.05 14.32L18.05 14.32L18.05 14.32Q18.06 15.60 18.13 16.35L18.13 16.35L18.13 16.35Q18.20 17.11 18.49 17.71L18.49 17.71L18.49 17.71Q18.79 18.31 19.42 18.48L19.42 18.48L19.42 18.48Q20.47 17.36 21.09 15.63L21.09 15.63L21.09 15.63Q21.71 13.90 21.71 11.55L21.71 11.55L21.71 11.55Q21.71 10.98 21.69 10.78L21.69 10.78L21.69 10.78Q22.01 10.58 22.22 10.51L22.22 10.51L22.22 10.51Q22.43 10.43 22.67 10.43L22.67 10.43ZM30.83 19.19L30.83 19.19Q30.31 19.19 30.07 18.94L30.07 18.94L30.07 18.94Q29.83 18.69 29.83 18.12L29.83 18.12L29.83 18.12Q29.83 17.32 30.04 15.69L30.04 15.69L30.04 15.69Q30.25 14.06 30.88 10.11L30.88 10.11L30.45 9.25L30.45 9.25Q30.90 8.96 31.33 8.81L31.33 8.81L31.33 8.81Q31.75 8.67 32.09 8.67L32.09 8.67L32.09 8.67Q32.91 8.67 33.33 9.18L33.33 9.18L33.33 9.18Q33.75 9.70 34.10 11.03L34.10 11.03L34.10 11.03Q34.44 12.36 35.15 15.93L35.15 15.93L35.28 16.55L35.43 16.55L35.43 16.55Q35.91 14.62 36.88 12.78L36.88 12.78L36.88 12.78Q37.86 10.95 39.05 9.81L39.05 9.81L39.05 9.81Q40.25 8.67 41.37 8.67L41.37 8.67L41.37 8.67Q41.92 8.67 41.92 9.37L41.92 9.37L41.92 9.37Q41.92 9.53 41.76 10.57L41.76 10.57L41.76 10.57Q41.59 11.61 41.52 12.04L41.52 12.04L41.52 12.04Q41.15 14.41 40.95 15.79L40.95 15.79L40.95 15.79Q40.75 17.16 40.75 17.68L40.75 17.68L40.75 17.68Q40.75 18.41 41.09 18.86L41.09 18.86L41.09 18.86Q40.53 19.22 40.01 19.22L40.01 19.22L40.01 19.22Q39.51 19.22 39.28 18.96L39.28 18.96L39.28 18.96Q39.05 18.70 39.05 18.13L39.05 18.13L39.05 18.13Q39.05 17.30 39.24 15.72L39.24 15.72L39.24 15.72Q39.44 14.13 40.00 10.75L40.00 10.75L39.91 10.75L39.91 10.75Q38.99 11.55 38.26 12.87L38.26 12.87L38.26 12.87Q37.52 14.18 37.06 15.53L37.06 15.53L37.06 15.53Q36.60 16.87 36.46 17.78L36.46 17.78L36.46 17.78Q36.20 18.00 35.90 18.13L35.90 18.13L35.90 18.13Q35.59 18.26 35.29 18.26L35.29 18.26L35.29 18.26Q34.68 18.26 34.36 17.82L34.36 17.82L34.36 17.82Q34.05 17.39 33.73 16.08L33.73 16.08L33.73 16.08Q33.40 14.77 32.65 11.03L32.65 11.03L32.59 10.75L32.51 10.75L32.37 11.69L32.37 11.69Q31.96 14.25 31.76 15.67L31.76 15.67L31.76 15.67Q31.56 17.09 31.56 17.65L31.56 17.65L31.56 17.65Q31.56 18.44 31.89 18.83L31.89 18.83L31.89 18.83Q31.36 19.19 30.83 19.19L30.83 19.19ZM50.79 18.06L50.79 18.06Q50.79 18.59 51.03 18.80L51.03 18.80L51.03 18.80Q50.61 19.18 50.06 19.18L50.06 19.18L50.06 19.18Q49.59 19.18 49.36 18.86L49.36 18.86L49.36 18.86Q49.13 18.54 49.13 17.85L49.13 17.85L49.13 17.81L48.99 17.74L48.99 17.74Q48.54 18.37 47.78 18.77L47.78 18.77L47.78 18.77Q47.03 19.18 46.31 19.18L46.31 19.18L46.31 19.18Q45.16 19.18 44.62 18.63L44.62 18.63L44.62 18.63Q44.07 18.07 44.07 16.91L44.07 16.91L44.07 16.91Q44.07 16.34 44.16 15.74L44.16 15.74L44.16 15.74Q44.25 15.13 44.45 14.14L44.45 14.14L44.45 14.14Q44.60 13.37 44.69 12.84L44.69 12.84L44.69 12.84Q44.77 12.31 44.77 11.89L44.77 11.89L44.77 11.89Q44.77 11.27 44.62 10.81L44.62 10.81L44.62 10.81Q44.90 10.64 45.21 10.54L45.21 10.54L45.21 10.54Q45.51 10.43 45.71 10.43L45.71 10.43L45.71 10.43Q46.12 10.43 46.31 10.65L46.31 10.65L46.31 10.65Q46.49 10.86 46.49 11.34L46.49 11.34L46.49 11.34Q46.49 11.69 46.38 12.32L46.38 12.32L46.38 12.32Q46.27 12.95 46.05 14.00L46.05 14.00L46.05 14.00Q45.89 14.77 45.76 15.49L45.76 15.49L45.76 15.49Q45.63 16.21 45.63 16.53L45.63 16.53L45.63 16.53Q45.63 17.33 45.96 17.74L45.96 17.74L45.96 17.74Q46.30 18.14 46.96 18.14L46.96 18.14L46.96 18.14Q47.64 18.14 48.25 17.71L48.25 17.71L48.25 17.71Q48.86 17.28 49.28 16.49L49.28 16.49L49.28 16.49Q49.60 14.73 50.27 11.86L50.27 11.86L49.70 11.02L49.70 11.02Q49.98 10.77 50.44 10.60L50.44 10.60L50.44 10.60Q50.90 10.43 51.28 10.43L51.28 10.43L51.28 10.43Q51.70 10.43 51.88 10.61L51.88 10.61L51.88 10.61Q52.05 10.78 52.05 11.20L52.05 11.20L52.05 11.20Q52.05 11.31 51.79 12.40L51.79 12.40L51.79 12.40Q51.34 14.32 51.07 15.69L51.07 15.69L51.07 15.69Q50.79 17.07 50.79 18.06L50.79 18.06ZM56.85 19.18L56.85 19.18Q55.47 19.18 54.67 18.80L54.67 18.80L54.67 18.80Q53.87 18.42 53.87 17.75L53.87 17.75L53.87 17.75Q53.87 17.47 54.04 17.22L54.04 17.22L54.04 17.22Q54.21 16.97 54.52 16.80L54.52 16.80L54.52 16.80Q54.87 17.50 55.45 17.87L55.45 17.87L55.45 17.87Q56.04 18.24 56.76 18.24L56.76 18.24L56.76 18.24Q57.76 18.24 58.38 17.86L58.38 17.86L58.38 17.86Q59.00 17.49 59.00 16.77L59.00 16.77L59.00 16.77Q59.00 16.34 58.54 16.07L58.54 16.07L58.54 16.07Q58.09 15.81 57.15 15.48L57.15 15.48L57.15 15.48Q56.28 15.19 55.72 14.92L55.72 14.92L55.72 14.92Q55.16 14.66 54.77 14.20L54.77 14.20L54.77 14.20Q54.38 13.75 54.38 13.08L54.38 13.08L54.38 13.08Q54.38 12.31 54.91 11.70L54.91 11.70L54.91 11.70Q55.44 11.10 56.39 10.77L56.39 10.77L56.39 10.77Q57.33 10.43 58.56 10.43L58.56 10.43L58.56 10.43Q59.68 10.43 60.40 10.77L60.40 10.77L60.40 10.77Q61.12 11.10 61.12 11.62L61.12 11.62L61.12 11.62Q61.12 12.12 60.79 12.40L60.79 12.40L60.79 12.40Q60.45 12.67 59.91 12.67L59.91 12.67L59.91 12.67Q59.37 12.67 59.00 12.33L59.00 12.33L59.00 12.33Q58.62 12.00 58.42 11.35L58.42 11.35L58.42 11.35Q57.27 11.48 56.62 11.89L56.62 11.89L56.62 11.89Q55.97 12.31 55.97 12.89L55.97 12.89L55.97 12.89Q55.97 13.30 56.40 13.55L56.40 13.55L56.40 13.55Q56.83 13.79 57.78 14.13L57.78 14.13L57.78 14.13Q58.67 14.43 59.23 14.70L59.23 14.70L59.23 14.70Q59.78 14.97 60.18 15.42L60.18 15.42L60.18 15.42Q60.58 15.88 60.58 16.56L60.58 16.56L60.58 16.56Q60.58 17.30 60.13 17.90L60.13 17.90L60.13 17.90Q59.68 18.49 58.84 18.84L58.84 18.84L58.84 18.84Q57.99 19.18 56.85 19.18L56.85 19.18ZM65.41 9.24L65.41 9.24Q64.96 9.24 64.69 9.02L64.69 9.02L64.69 9.02Q64.43 8.81 64.43 8.44L64.43 8.44L64.43 8.44Q64.43 8.02 64.78 7.71L64.78 7.71L64.78 7.71Q65.13 7.39 65.67 7.39L65.67 7.39L65.67 7.39Q66.14 7.39 66.40 7.61L66.40 7.61L66.40 7.61Q66.65 7.83 66.65 8.18L66.65 8.18L66.65 8.18Q66.65 8.62 66.30 8.93L66.30 8.93L66.30 8.93Q65.95 9.24 65.41 9.24L65.41 9.24ZM64.16 19.18L64.16 19.18Q63.69 19.18 63.45 18.94L63.45 18.94L63.45 18.94Q63.21 18.70 63.21 18.19L63.21 18.19L63.21 18.19Q63.21 17.61 63.48 16.14L63.48 16.14L63.48 16.14Q63.76 14.67 64.41 11.72L64.41 11.72L63.80 11.02L63.80 11.02Q64.13 10.75 64.58 10.59L64.58 10.59L64.58 10.59Q65.02 10.43 65.38 10.43L65.38 10.43L65.38 10.43Q65.80 10.43 65.98 10.61L65.98 10.61L65.98 10.61Q66.15 10.78 66.15 11.20L66.15 11.20L66.15 11.20Q66.15 11.31 65.88 12.40L65.88 12.40L65.88 12.40Q65.45 14.18 65.16 15.62L65.16 15.62L65.16 15.62Q64.88 17.07 64.88 18.06L64.88 18.06L64.88 18.06Q64.88 18.59 65.13 18.80L65.13 18.80L65.13 18.80Q64.67 19.18 64.16 19.18L64.16 19.18ZM71.58 19.18L71.58 19.18Q70.04 19.18 69.17 18.28L69.17 18.28L69.17 18.28Q68.29 17.39 68.29 15.79L68.29 15.79L68.29 15.79Q68.29 14.28 68.96 13.06L68.96 13.06L68.96 13.06Q69.64 11.83 70.80 11.13L70.80 11.13L70.80 11.13Q71.96 10.43 73.35 10.43L73.35 10.43L73.35 10.43Q74.23 10.43 74.74 10.72L74.74 10.72L74.74 10.72Q75.25 11.00 75.25 11.51L75.25 11.51L75.25 11.51Q75.25 11.93 74.92 12.22L74.92 12.22L74.92 12.22Q74.59 12.50 74.10 12.50L74.10 12.50L74.10 12.50Q72.98 12.50 72.48 11.49L72.48 11.49L72.48 11.49Q71.40 11.97 70.71 13.17L70.71 13.17L70.71 13.17Q70.01 14.36 70.01 15.88L70.01 15.88L70.01 15.88Q70.01 16.98 70.43 17.61L70.43 17.61L70.43 17.61Q70.84 18.24 71.57 18.24L71.57 18.24L71.57 18.24Q72.45 18.24 73.02 17.61L73.02 17.61L73.02 17.61Q73.60 16.97 73.65 16.00L73.65 16.00L73.65 16.00Q74.79 16.00 74.79 16.86L74.79 16.86L74.79 16.86Q74.79 17.49 74.35 18.02L74.35 18.02L74.35 18.02Q73.92 18.55 73.19 18.87L73.19 18.87L73.19 18.87Q72.45 19.18 71.58 19.18L71.58 19.18ZM84.91 19.18L84.91 19.18Q83.33 19.18 82.37 18.71L82.37 18.71L82.37 18.71Q81.41 18.24 81.41 17.40L81.41 17.40L81.41 17.40Q81.41 17.09 81.57 16.82L81.57 16.82L81.57 16.82Q81.73 16.55 82.01 16.38L82.01 16.38L82.01 16.38Q82.45 17.23 83.19 17.69L83.19 17.69L83.19 17.69Q83.94 18.14 84.83 18.14L84.83 18.14L84.83 18.14Q86.03 18.14 86.76 17.72L86.76 17.72L86.76 17.72Q87.49 17.30 87.49 16.52L87.49 16.52L87.49 16.52Q87.49 16.13 87.20 15.83L87.20 15.83L87.20 15.83Q86.91 15.54 86.47 15.34L86.47 15.34L86.47 15.34Q86.03 15.13 85.27 14.85L85.27 14.85L85.27 14.85Q84.24 14.48 83.60 14.14L83.60 14.14L83.60 14.14Q82.96 13.80 82.50 13.24L82.50 13.24L82.50 13.24Q82.04 12.67 82.04 11.83L82.04 11.83L82.04 11.83Q82.04 10.92 82.66 10.20L82.66 10.20L82.66 10.20Q83.29 9.48 84.41 9.07L84.41 9.07L84.41 9.07Q85.54 8.67 87.01 8.67L87.01 8.67L87.01 8.67Q87.86 8.67 88.54 8.84L88.54 8.84L88.54 8.84Q89.22 9.02 89.61 9.32L89.61 9.32L89.61 9.32Q89.99 9.63 89.99 10.04L89.99 10.04L89.99 10.04Q89.99 10.63 89.61 10.94L89.61 10.94L89.61 10.94Q89.22 11.26 88.59 11.26L88.59 11.26L88.59 11.26Q87.32 11.26 86.86 9.74L86.86 9.74L86.86 9.74Q85.44 9.91 84.64 10.42L84.64 10.42L84.64 10.42Q83.85 10.93 83.85 11.63L83.85 11.63L83.85 11.63Q83.85 12.00 84.13 12.27L84.13 12.27L84.13 12.27Q84.41 12.54 84.83 12.73L84.83 12.73L84.83 12.73Q85.25 12.92 86.02 13.22L86.02 13.22L86.02 13.22Q87.04 13.58 87.70 13.92L87.70 13.92L87.70 13.92Q88.35 14.25 88.82 14.81L88.82 14.81L88.82 14.81Q89.29 15.37 89.29 16.20L89.29 16.20L89.29 16.20Q89.29 17.01 88.78 17.69L88.78 17.69L88.78 17.69Q88.27 18.37 87.28 18.77L87.28 18.77L87.28 18.77Q86.30 19.18 84.91 19.18L84.91 19.18ZM96.38 11.28L96.38 11.28Q96.74 11.28 96.88 11.42L96.88 11.42L96.88 11.42Q97.02 11.56 97.02 11.84L97.02 11.84L97.02 11.84Q97.02 12.21 96.80 12.50L96.80 12.50L96.80 12.50Q96.59 12.45 96.23 12.41L96.23 12.41L96.23 12.41Q95.87 12.38 95.56 12.38L95.56 12.38L95.56 12.38Q95.30 12.38 95.17 12.39L95.17 12.39L95.17 12.39Q94.67 14.01 94.38 15.32L94.38 15.32L94.38 15.32Q94.09 16.63 94.11 17.92L94.11 17.92L94.56 18.68L94.56 18.68Q94.30 18.93 93.99 19.05L93.99 19.05L93.99 19.05Q93.67 19.18 93.38 19.18L93.38 19.18L93.38 19.18Q92.95 19.18 92.69 18.93L92.69 18.93L92.69 18.93Q92.44 18.68 92.44 17.99L92.44 17.99L92.44 17.99Q92.44 17.30 92.62 16.42L92.62 16.42L92.62 16.42Q92.81 15.53 93.16 14.13L93.16 14.13L93.52 12.63L93.52 12.63Q93.06 12.70 92.67 12.70L92.67 12.70L92.67 12.70Q92.32 12.70 92.16 12.57L92.16 12.57L92.16 12.57Q92.01 12.43 92.01 12.15L92.01 12.15L92.01 12.15Q92.01 11.79 92.23 11.47L92.23 11.47L92.23 11.47Q92.62 11.59 93.51 11.59L93.51 11.59L93.73 11.59L93.73 11.59Q93.79 11.03 93.79 10.85L93.79 10.85L93.79 10.85Q93.79 10.32 93.62 9.60L93.62 9.60L93.62 9.60Q93.86 9.35 94.25 9.21L94.25 9.21L94.25 9.21Q94.64 9.06 95.02 9.06L95.02 9.06L95.02 9.06Q95.42 9.06 95.61 9.24L95.61 9.24L95.61 9.24Q95.79 9.42 95.79 9.84L95.79 9.84L95.79 9.84Q95.79 10.29 95.48 11.35L95.48 11.35L95.48 11.35Q95.97 11.28 96.38 11.28L96.38 11.28ZM104.75 18.06L104.75 18.06Q104.75 18.59 104.99 18.80L104.99 18.80L104.99 18.80Q104.57 19.18 104.02 19.18L104.02 19.18L104.02 19.18Q103.54 19.18 103.31 18.86L103.31 18.86L103.31 18.86Q103.08 18.54 103.08 17.85L103.08 17.85L103.08 17.81L102.94 17.74L102.94 17.74Q102.49 18.37 101.74 18.77L101.74 18.77L101.74 18.77Q100.98 19.18 100.27 19.18L100.27 19.18L100.27 19.18Q99.12 19.18 98.57 18.63L98.57 18.63L98.57 18.63Q98.03 18.07 98.03 16.91L98.03 16.91L98.03 16.91Q98.03 16.34 98.12 15.74L98.12 15.74L98.12 15.74Q98.21 15.13 98.41 14.14L98.41 14.14L98.41 14.14Q98.56 13.37 98.64 12.84L98.64 12.84L98.64 12.84Q98.73 12.31 98.73 11.89L98.73 11.89L98.73 11.89Q98.73 11.27 98.57 10.81L98.57 10.81L98.57 10.81Q98.85 10.64 99.16 10.54L99.16 10.54L99.16 10.54Q99.47 10.43 99.67 10.43L99.67 10.43L99.67 10.43Q100.07 10.43 100.26 10.65L100.26 10.65L100.26 10.65Q100.45 10.86 100.45 11.34L100.45 11.34L100.45 11.34Q100.45 11.69 100.34 12.32L100.34 12.32L100.34 12.32Q100.23 12.95 100.00 14.00L100.00 14.00L100.00 14.00Q99.85 14.77 99.72 15.49L99.72 15.49L99.72 15.49Q99.58 16.21 99.58 16.53L99.58 16.53L99.58 16.53Q99.58 17.33 99.92 17.74L99.92 17.74L99.92 17.74Q100.25 18.14 100.91 18.14L100.91 18.14L100.91 18.14Q101.60 18.14 102.21 17.71L102.21 17.71L102.21 17.71Q102.82 17.28 103.24 16.49L103.24 16.49L103.24 16.49Q103.56 14.73 104.23 11.86L104.23 11.86L103.66 11.02L103.66 11.02Q103.94 10.77 104.40 10.60L104.40 10.60L104.40 10.60Q104.86 10.43 105.24 10.43L105.24 10.43L105.24 10.43Q105.66 10.43 105.83 10.61L105.83 10.61L105.83 10.61Q106.01 10.78 106.01 11.20L106.01 11.20L106.01 11.20Q106.01 11.31 105.74 12.40L105.74 12.40L105.74 12.40Q105.29 14.32 105.02 15.69L105.02 15.69L105.02 15.69Q104.75 17.07 104.75 18.06L104.75 18.06ZM115.32 17.93L115.32 17.93Q115.32 18.19 115.40 18.42L115.40 18.42L115.40 18.42Q115.47 18.66 115.61 18.79L115.61 18.79L115.61 18.79Q115.15 19.18 114.56 19.18L114.56 19.18L114.56 19.18Q113.68 19.18 113.68 18.07L113.68 18.07L113.68 18.07Q113.68 17.85 113.75 17.19L113.75 17.19L113.60 17.12L113.60 17.12Q113.09 18.10 112.33 18.64L112.33 18.64L112.33 18.64Q111.57 19.18 110.67 19.18L110.67 19.18L110.67 19.18Q109.91 19.18 109.33 18.77L109.33 18.77L109.33 18.77Q108.75 18.37 108.44 17.62L108.44 17.62L108.44 17.62Q108.12 16.87 108.12 15.89L108.12 15.89L108.12 15.89Q108.12 14.48 108.84 13.31L108.84 13.31L108.84 13.31Q109.55 12.14 110.78 11.46L110.78 11.46L110.78 11.46Q112.01 10.78 113.50 10.78L113.50 10.78L113.50 10.78Q114.14 10.78 114.73 10.88L114.73 10.88L115.01 9.28L114.39 8.58L114.39 8.58Q114.73 8.30 115.18 8.14L115.18 8.14L115.18 8.14Q115.63 7.98 116.00 7.98L116.00 7.98L116.00 7.98Q116.40 7.98 116.56 8.16L116.56 8.16L116.56 8.16Q116.73 8.33 116.73 8.75L116.73 8.75L116.73 8.75Q116.73 9.03 116.61 9.62L116.61 9.62L116.61 9.62Q116.49 10.21 116.34 10.91L116.34 10.91L116.34 10.91Q115.88 12.95 115.60 14.60L115.60 14.60L115.60 14.60Q115.32 16.24 115.32 17.93L115.32 17.93ZM114.00 15.41L114.00 15.41Q114.27 13.54 114.62 11.56L114.62 11.56L114.62 11.56Q113.16 11.62 112.08 12.18L112.08 12.18L112.08 12.18Q111.01 12.74 110.42 13.69L110.42 13.69L110.42 13.69Q109.84 14.64 109.84 15.85L109.84 15.85L109.84 15.85Q109.84 16.80 110.24 17.33L110.24 17.33L110.24 17.33Q110.63 17.86 111.34 17.86L111.34 17.86L111.34 17.86Q112.11 17.86 112.85 17.18L112.85 17.18L112.85 17.18Q113.60 16.49 114.00 15.33L114.00 15.33L114.00 15.41ZM121.17 9.24L121.17 9.24Q120.72 9.24 120.46 9.02L120.46 9.02L120.46 9.02Q120.19 8.81 120.19 8.44L120.19 8.44L120.19 8.44Q120.19 8.02 120.54 7.71L120.54 7.71L120.54 7.71Q120.89 7.39 121.44 7.39L121.44 7.39L121.44 7.39Q121.90 7.39 122.16 7.61L122.16 7.61L122.16 7.61Q122.42 7.83 122.42 8.18L122.42 8.18L122.42 8.18Q122.42 8.62 122.07 8.93L122.07 8.93L122.07 8.93Q121.72 9.24 121.17 9.24L121.17 9.24ZM119.92 19.18L119.92 19.18Q119.45 19.18 119.21 18.94L119.21 18.94L119.21 18.94Q118.97 18.70 118.97 18.19L118.97 18.19L118.97 18.19Q118.97 17.61 119.25 16.14L119.25 16.14L119.25 16.14Q119.52 14.67 120.18 11.72L120.18 11.72L119.56 11.02L119.56 11.02Q119.90 10.75 120.34 10.59L120.34 10.59L120.34 10.59Q120.78 10.43 121.14 10.43L121.14 10.43L121.14 10.43Q121.56 10.43 121.74 10.61L121.74 10.61L121.74 10.61Q121.91 10.78 121.91 11.20L121.91 11.20L121.91 11.20Q121.91 11.31 121.65 12.40L121.65 12.40L121.65 12.40Q121.21 14.18 120.92 15.62L120.92 15.62L120.92 15.62Q120.64 17.07 120.64 18.06L120.64 18.06L120.64 18.06Q120.64 18.59 120.89 18.80L120.89 18.80L120.89 18.80Q120.43 19.18 119.92 19.18L119.92 19.18ZM127.46 19.18L127.46 19.18Q126.45 19.18 125.69 18.73L125.69 18.73L125.69 18.73Q124.92 18.27 124.51 17.44L124.51 17.44L124.51 17.44Q124.10 16.60 124.10 15.50L124.10 15.50L124.10 15.50Q124.10 14.01 124.72 12.87L124.72 12.87L124.72 12.87Q125.34 11.72 126.46 11.07L126.46 11.07L126.46 11.07Q127.58 10.43 129.00 10.43L129.00 10.43L129.00 10.43Q129.58 10.43 130.07 10.54L130.07 10.54L130.07 10.54Q130.23 10.77 130.26 11.20L130.26 11.20L130.26 11.20Q128.86 11.20 127.86 11.76L127.86 11.76L127.86 11.76Q126.87 12.32 126.35 13.32L126.35 13.32L126.35 13.32Q125.83 14.32 125.83 15.60L125.83 15.60L125.83 15.60Q125.83 16.84 126.29 17.54L126.29 17.54L126.29 17.54Q126.76 18.24 127.61 18.24L127.61 18.24L127.61 18.24Q128.44 18.24 129.10 17.78L129.10 17.78L129.10 17.78Q129.77 17.32 130.19 16.46L130.19 16.46L130.19 16.46Q130.62 15.61 130.73 14.48L130.73 14.48L130.73 14.48Q130.16 14.11 129.90 13.68L129.90 13.68L129.90 13.68Q129.64 13.24 129.64 12.66L129.64 12.66L129.64 12.66Q129.64 12.12 129.96 11.77L129.96 11.77L129.96 11.77Q130.28 11.41 130.76 11.41L130.76 11.41L130.76 11.41Q131.40 11.41 131.77 11.98L131.77 11.98L131.77 11.98Q132.13 12.56 132.13 13.58L132.13 13.58L132.13 13.58Q132.13 15.12 131.51 16.40L131.51 16.40L131.51 16.40Q130.89 17.68 129.81 18.43L129.81 18.43L129.81 18.43Q128.74 19.18 127.46 19.18L127.46 19.18Z"></path></g><defs data-v-fde0c5aa=""><linearGradient data-v-fde0c5aa="" gradientTransform="rotate(25)" id="ee71b542-bc9e-4037-ad8e-391d769168c3" x1="0%" y1="0%" x2="100%" y2="0%"><stop data-v-fde0c5aa="" offset="0%" stop-color="#050922" stop-opacity="1"></stop><stop data-v-fde0c5aa="" offset="100%" stop-color="#6EE6C7" stop-opacity="1"></stop></linearGradient></defs><g data-v-fde0c5aa="" id="7b64aa7b-2633-4390-958b-084b6fbd007b" stroke="none" fill="url(#ee71b542-bc9e-4037-ad8e-391d769168c3)" transform="matrix(0.40047306163098156,0,0,0.40047306163098156,36.247167205273,129.85918199678474)"><circle cx="42.692" cy="80.595" r="3.888"></circle><path d="M47.234 63.9c-2.255-2.058-3.994-8.579 2.516-10.977 6.207-2.287 13.525 12.121 1.83 15.094-12.603 3.204-18.063-19.139-6.175-27.443 31.126-21.742-3.546-40.633-.124-9.834 5.776 42.406 6.482 41.893 6.698 47.784.15 4.093-2.425 7.332-6.77 6.417-1.409-.297.298-1.566.229-1.601-1.372-.686-3.016 1.147-4.117.915 8.69 4.803 11.756-1.338 11.507-5.946-.173-3.197-5.104-47.366-5.104-48.661 0-13.264 7.972-11.663 7.286-5.489S40.145 40.573 36.486 48.12s-2.884 17.575 8.462 21.269c11.238 3.659 21.758-9.148 16.269-16.009-8.306-10.382-24.013 2.744-13.983 10.52zM38.43 27.664H21.825a1.384 1.384 0 1 1 0-2.768H38.43a1.384 1.384 0 1 1 0 2.768zM77.175 27.664H63.337a1.384 1.384 0 1 1 0-2.768h13.837a1.384 1.384 0 0 1 .001 2.768zM34.279 40.117H14.906a1.384 1.384 0 1 1 0-2.768h19.372a1.384 1.384 0 0 1 .001 2.768z"></path><path d="M84.094 40.117H55.035a1.384 1.384 0 1 1 0-2.768h29.059a1.384 1.384 0 1 1 0 2.768zM27.36 52.571H10.755a1.384 1.384 0 1 1 0-2.768H27.36a1.384 1.384 0 1 1 0 2.768zM88.245 52.571H67.489a1.384 1.384 0 1 1 0-2.768h20.756a1.384 1.384 0 1 1 0 2.768zM30.128 65.025H16.29a1.384 1.384 0 1 1 0-2.768h13.837a1.384 1.384 0 0 1 .001 2.768zM84.094 65.025H67.489a1.384 1.384 0 1 1 0-2.768h16.605a1.384 1.384 0 1 1 0 2.768zM32.895 77.479h-9.686a1.384 1.384 0 1 1 0-2.768h9.686a1.384 1.384 0 1 1 0 2.768z"></path><g><path d="M75.791 77.479H60.57a1.384 1.384 0 1 1 0-2.768h15.221a1.384 1.384 0 1 1 0 2.768z"></path></g></g><!----></svg>