<svg data-v-fde0c5aa="" xmlns="http://www.w3.org/2000/svg" viewBox="0 0 300 300" class="iconLeft"><!----><defs data-v-fde0c5aa=""><!----></defs><rect data-v-fde0c5aa="" fill="#EBF2F2" x="0" y="0" width="300px" height="300px" class="logo-background-square"></rect><defs data-v-fde0c5aa=""><!----></defs><g data-v-fde0c5aa="" id="3626bd5f-d987-4fcb-94e3-ca99a875ec2f" fill="#0F2020"><path d=""></path></g><defs data-v-fde0c5aa=""><linearGradient data-v-fde0c5aa="" gradientTransform="rotate(25)" id="285e5673-c5c2-42ed-9931-95d637d50033" x1="0%" y1="0%" x2="100%" y2="0%"><stop data-v-fde0c5aa="" offset="0%" stop-color="#050922" stop-opacity="1"></stop><stop data-v-fde0c5aa="" offset="100%" stop-color="#6EE6C7" stop-opacity="1"></stop></linearGradient></defs><g data-v-fde0c5aa="" id="11fb3c90-75b9-43aa-abed-5bae911bd960" stroke="none" fill="url(#285e5673-c5c2-42ed-9931-95d637d50033)"><circle cx="42.692" cy="80.595" r="3.888"></circle><path d="M47.234 63.9c-2.255-2.058-3.994-8.579 2.516-10.977 6.207-2.287 13.525 12.121 1.83 15.094-12.603 3.204-18.063-19.139-6.175-27.443 31.126-21.742-3.546-40.633-.124-9.834 5.776 42.406 6.482 41.893 6.698 47.784.15 4.093-2.425 7.332-6.77 6.417-1.409-.297.298-1.566.229-1.601-1.372-.686-3.016 1.147-4.117.915 8.69 4.803 11.756-1.338 11.507-5.946-.173-3.197-5.104-47.366-5.104-48.661 0-13.264 7.972-11.663 7.286-5.489S40.145 40.573 36.486 48.12s-2.884 17.575 8.462 21.269c11.238 3.659 21.758-9.148 16.269-16.009-8.306-10.382-24.013 2.744-13.983 10.52zM38.43 27.664H21.825a1.384 1.384 0 1 1 0-2.768H38.43a1.384 1.384 0 1 1 0 2.768zM77.175 27.664H63.337a1.384 1.384 0 1 1 0-2.768h13.837a1.384 1.384 0 0 1 .001 2.768zM34.279 40.117H14.906a1.384 1.384 0 1 1 0-2.768h19.372a1.384 1.384 0 0 1 .001 2.768z"></path><path d="M84.094 40.117H55.035a1.384 1.384 0 1 1 0-2.768h29.059a1.384 1.384 0 1 1 0 2.768zM27.36 52.571H10.755a1.384 1.384 0 1 1 0-2.768H27.36a1.384 1.384 0 1 1 0 2.768zM88.245 52.571H67.489a1.384 1.384 0 1 1 0-2.768h20.756a1.384 1.384 0 1 1 0 2.768zM30.128 65.025H16.29a1.384 1.384 0 1 1 0-2.768h13.837a1.384 1.384 0 0 1 .001 2.768zM84.094 65.025H67.489a1.384 1.384 0 1 1 0-2.768h16.605a1.384 1.384 0 1 1 0 2.768zM32.895 77.479h-9.686a1.384 1.384 0 1 1 0-2.768h9.686a1.384 1.384 0 1 1 0 2.768z"></path><g><path d="M75.791 77.479H60.57a1.384 1.384 0 1 1 0-2.768h15.221a1.384 1.384 0 1 1 0 2.768z"></path></g></g><!----></svg>